<svg width="1000" height="301" viewBox="0 0 1000 301" fill="none" xmlns="http://www.w3.org/2000/svg">
<g clip-path="url(#clip0_299_2880)">
<path d="M6.4968 65.1125C5.99916 65.209 5.34942 65.3888 5.04528 65.4996C4.74115 65.5961 4.14672 65.9143 3.73201 66.1768C3.31731 66.4399 2.63988 67.02 2.22518 67.4767C1.82426 67.9189 1.28514 68.7208 1.02248 69.2595C0.759814 69.7989 0.455679 70.6283 0.331268 71.1263C0.165386 71.7759 0.123916 72.3842 0.179229 73.2687C0.220699 74.043 0.358896 74.8035 0.524835 75.2733C0.690716 75.688 1.06395 76.4066 1.36809 76.8632C1.72753 77.4296 20.6942 96.4795 61.1162 136.874C116.523 192.239 120.394 196.082 121.237 196.483C121.735 196.718 122.509 197.009 122.965 197.119C123.656 197.312 124.859 197.34 130.472 197.34H137.135C171.847 141.629 181.925 125.413 181.925 125.344C181.925 125.289 168.695 112.018 152.521 95.8575C125.15 68.5134 123.034 66.4399 122.136 65.9695C121.61 65.6932 120.629 65.3474 119.965 65.1952L118.749 64.9052C17.3626 64.9327 7.22949 64.9603 6.4968 65.1125ZM358.597 67.1309C358.182 67.186 330.216 73.6559 296.458 81.4939C248.309 92.6639 234.899 95.8299 234.249 96.1338C233.793 96.3549 233.088 96.811 232.673 97.143C232.259 97.4749 231.664 98.1108 231.346 98.5668C231.028 99.0229 208.661 134.855 181.635 178.194C154.622 221.532 132.324 257.392 132.075 257.89C131.826 258.388 131.564 259.12 131.481 259.507C131.398 259.908 131.329 260.6 131.329 261.028C131.329 261.47 131.425 262.231 131.55 262.728C131.66 263.226 131.992 264.069 132.268 264.594C132.587 265.203 133.14 265.922 133.748 266.53C134.287 267.083 135.075 267.691 135.545 267.926C136.001 268.175 136.734 268.465 137.177 268.59C137.605 268.714 138.407 268.811 138.932 268.811C139.471 268.811 140.259 268.714 140.702 268.604C141.13 268.493 168.958 262.037 202.523 254.241C257.46 241.508 263.653 240.043 264.565 239.587C265.146 239.296 265.907 238.758 266.39 238.287C267.054 237.651 267.966 236.269 271.174 231.14C273.344 227.643 295.573 191.99 320.553 151.928C345.533 111.852 366.187 78.7018 366.422 78.2452C366.67 77.7891 366.974 77.043 367.085 76.5864C367.21 76.1303 367.306 75.3147 367.306 74.7891C367.306 74.2504 367.21 73.4485 367.085 72.9925C366.974 72.5358 366.657 71.7621 366.408 71.2641C366.145 70.7667 365.634 70.02 365.26 69.6053C364.887 69.1906 364.196 68.5824 363.698 68.2504C363.214 67.9327 362.44 67.5456 361.984 67.4072C361.528 67.2693 360.754 67.1171 360.256 67.0757C359.758 67.0338 359.012 67.062 358.597 67.1309Z" fill="#FF6442"/>
<path fill-rule="evenodd" clip-rule="evenodd" d="M796.181 0C798.708 0 800.316 0.143596 802.097 0.574383C803.447 0.919012 805.371 1.49339 806.405 1.86674C807.439 2.26881 809.277 3.21654 810.483 4.02068C811.718 4.79609 813.613 6.34693 814.733 7.46697C815.825 8.58702 817.404 10.4825 818.18 11.7174C818.984 12.9236 820.018 14.9052 820.448 16.0827C820.908 17.2602 821.454 19.0121 821.655 19.9598C821.856 20.9362 822.028 23.3487 821.999 25.56C821.999 28.5755 821.856 29.954 821.367 31.7346C821.023 32.9983 820.334 34.9512 819.817 36.0425C819.3 37.1338 818.438 38.7134 817.892 39.4888C817.347 40.2642 816.198 41.6715 815.336 42.6192C814.446 43.5382 813.01 44.8593 812.149 45.5198C811.287 46.2091 809.535 47.2717 808.272 47.9322C807.008 48.564 804.94 49.3682 803.676 49.7128C802.068 50.1436 800.173 50.3733 797.358 50.4595C794.228 50.5744 792.792 50.5169 790.896 50.1149C789.547 49.8564 787.617 49.3107 786.583 48.9374C785.549 48.5353 783.797 47.6738 782.706 47.0132C781.586 46.3814 779.748 44.9167 778.57 43.7967C777.421 42.7053 775.899 41.0109 775.239 40.0632C774.55 39.1155 773.544 37.3636 772.97 36.1861C772.396 35.0086 771.678 32.9983 771.362 31.7346C771.046 30.471 770.701 28.2883 770.615 26.8524C770.5 25.1292 770.586 23.2912 770.902 21.3096C771.161 19.7013 771.735 17.3751 772.223 16.1401C772.683 14.9339 773.717 12.9236 774.521 11.6887C775.296 10.4825 776.847 8.58702 777.967 7.46697C779.058 6.34693 780.839 4.88225 781.902 4.19299C782.993 3.50373 784.888 2.49856 786.152 2.01034C787.416 1.49339 789.346 0.890294 790.466 0.660541C791.557 0.430788 792.533 0.201034 792.591 0.114877C792.648 0.0574387 794.285 0 796.181 0ZM909.236 76.8811C911.218 76.9673 914.435 77.197 916.416 77.4268C918.398 77.6565 921.413 78.1735 923.165 78.5755C924.888 78.9489 927.617 79.7243 929.196 80.2412C930.776 80.7582 933.475 81.8782 935.227 82.6824C936.95 83.5152 939.621 84.9225 941.115 85.8127C942.614 86.703 945.141 88.3975 946.721 89.6037C948.3 90.7812 950.569 92.5905 951.718 93.6244C952.867 94.6582 954.992 96.8409 956.428 98.5066C957.864 100.172 959.127 101.551 959.271 101.58C959.386 101.637 959.501 96.6111 959.501 79.2648L999.857 79.4084L1000 238.943H959.501V227.657C959.501 221.482 959.443 216.312 959.357 216.169C959.271 216.054 958.467 216.916 957.548 218.036C956.629 219.184 955.107 220.965 954.159 221.97C953.24 222.975 951.23 224.842 949.736 226.106C948.243 227.369 945.457 229.437 943.562 230.672C941.66 231.936 938.358 233.831 936.232 234.894C934.107 235.956 930.661 237.364 928.622 238.053C926.554 238.713 923.338 239.575 921.442 239.948C919.547 240.322 916.703 240.781 915.124 240.982C913.544 241.155 909.725 241.327 906.652 241.327C903.573 241.327 899.753 241.183 898.174 240.982C896.594 240.781 893.694 240.322 891.712 239.92C889.73 239.518 886.37 238.599 884.245 237.909C882.12 237.191 878.674 235.784 876.635 234.808C874.567 233.831 871.666 232.252 870.173 231.304C868.679 230.385 866.152 228.662 864.567 227.484C862.987 226.307 859.799 223.464 857.502 221.166C855.204 218.868 852.304 215.594 851.04 213.9C849.805 212.234 847.967 209.563 847.019 208.013C846.043 206.462 844.377 203.446 843.315 201.321C842.252 199.196 840.816 196.008 840.127 194.285C839.466 192.562 838.432 189.575 837.858 187.679C837.284 185.784 836.451 182.366 835.991 180.069C835.532 177.771 834.929 174.296 834.641 172.315C834.239 169.472 834.153 166.657 834.124 158.817C834.124 150.775 834.211 148.191 834.641 145.032C834.929 142.906 835.503 139.604 835.876 137.708C836.25 135.813 837.025 132.654 837.6 130.672C838.174 128.69 839.351 125.273 840.213 123.061C841.075 120.85 842.396 117.863 843.114 116.456C843.803 115.049 845.181 112.579 846.129 110.999C847.077 109.42 848.628 107.036 849.604 105.686C850.552 104.337 852.447 101.953 853.826 100.373C855.176 98.7938 857.215 96.6399 858.335 95.5485C859.483 94.4859 861.408 92.8202 862.614 91.8438C863.849 90.8673 866.152 89.2303 867.732 88.1964C869.311 87.1338 872.154 85.4968 874.05 84.5204C875.945 83.5439 878.53 82.3377 879.794 81.8495C881.057 81.3326 883.068 80.6146 884.245 80.2125C885.423 79.8392 887.691 79.2074 889.271 78.834C890.85 78.4607 893.55 77.9437 895.302 77.6565C897.025 77.398 900.069 77.0821 902.051 76.9673C904.038 76.8524 907.255 76.8237 909.236 76.8811ZM905.359 113.871C903.923 114.273 901.534 115.164 900.041 115.824C898.547 116.485 895.962 117.921 894.297 119.012C892.315 120.304 890.219 122.056 888.237 124.038C886.255 126.048 884.504 128.173 883.125 130.241C881.948 131.964 880.626 134.176 880.138 135.123C879.679 136.071 878.846 137.967 878.329 139.345C877.783 140.752 877.037 143.194 876.635 144.802C876.232 146.439 875.716 149.368 875.486 151.35C875.256 153.331 875.055 156.491 875.055 158.386C875.055 160.281 875.199 163.182 875.342 164.848C875.514 166.513 875.917 169.098 876.232 170.592C876.52 172.085 877.18 174.555 877.668 176.048C878.185 177.542 879.162 180.011 879.851 181.505C880.54 182.998 882.062 185.669 883.211 187.392C884.36 189.115 886.456 191.758 887.864 193.251C889.271 194.716 891.454 196.726 892.717 197.645C893.981 198.593 895.848 199.885 896.881 200.488C897.915 201.091 899.983 202.125 901.477 202.786C902.97 203.446 905.704 204.365 907.513 204.854C910.672 205.686 911.074 205.715 916.847 205.744C921.643 205.773 923.366 205.658 925.319 205.256C926.669 204.968 928.909 204.337 930.345 203.877C931.752 203.389 934.165 202.412 935.658 201.666C937.151 200.919 939.277 199.684 940.397 198.966C941.488 198.219 943.303 196.841 944.423 195.864C945.514 194.917 947.18 193.28 948.128 192.188C949.047 191.126 950.569 189.115 951.517 187.679C952.464 186.244 953.728 184.118 954.331 182.941C954.934 181.763 955.882 179.437 956.456 177.771C957.06 176.106 957.835 173.205 958.208 171.31C958.61 169.414 959.041 165.853 959.213 163.412C959.443 160.195 959.443 157.783 959.213 154.652C959.041 152.269 958.582 148.794 958.208 146.898C957.835 145.003 957.06 142.102 956.456 140.437C955.882 138.771 954.934 136.445 954.331 135.267C953.728 134.09 952.436 131.878 951.431 130.385C950.311 128.662 948.415 126.422 946.319 124.325C944.481 122.487 942.005 120.333 940.828 119.558C939.65 118.754 937.381 117.461 935.802 116.686C934.222 115.882 931.896 114.877 930.632 114.446C929.369 114.015 927.157 113.412 925.75 113.096C923.912 112.694 921.701 112.493 917.996 112.435C914.406 112.349 912.08 112.435 910.385 112.723C909.035 112.924 906.767 113.469 905.359 113.871ZM469.479 77.5416L469.91 78.7479C470.14 79.4371 479.504 105.6 490.677 136.933C501.851 168.265 511.099 193.912 511.214 193.94C511.358 193.969 517.332 177.714 524.485 157.812C531.636 137.909 541.058 111.746 553.294 77.6852L574.435 77.5991C591.235 77.5704 595.549 77.6278 595.463 77.8863C595.405 78.0873 590.431 90.6088 584.429 105.686C578.427 120.764 566.968 149.598 558.953 169.73C550.938 189.862 539.622 218.38 533.791 233.056C526.438 251.551 522.388 261.344 520.607 264.934C519.228 267.777 516.902 271.855 515.494 273.98C514.115 276.106 512.162 278.834 511.214 280.011C510.266 281.189 508.6 283.142 507.48 284.319C506.389 285.497 504.378 287.392 503.057 288.512C501.736 289.661 499.552 291.298 498.203 292.188C496.852 293.079 494.583 294.4 493.176 295.089C491.74 295.778 489.672 296.669 488.58 297.099C487.46 297.501 485.133 298.219 483.41 298.679C481.658 299.167 478.039 299.856 475.367 300.258C470.686 300.948 469.91 300.976 443.628 300.976V265.939H455.175C464.28 265.939 467.296 265.853 469.335 265.508C470.743 265.25 472.552 264.848 473.357 264.589C474.133 264.331 475.511 263.785 476.373 263.354C477.234 262.895 478.585 262.033 479.389 261.43C480.164 260.798 481.457 259.449 482.232 258.443C482.979 257.438 484.071 255.773 484.645 254.739C485.219 253.705 486.771 249.828 488.092 246.123C489.413 242.418 490.447 239.115 490.361 238.8C490.304 238.484 483.554 221.626 475.367 201.321C467.21 181.017 452.705 144.974 443.14 121.195C433.575 97.4153 425.705 77.8863 425.618 77.7427C425.532 77.6278 435.385 77.5416 469.479 77.5416ZM775.382 77.5416H817.605V168.811C817.605 231.275 817.519 261.057 817.289 263.211C817.146 264.934 816.686 267.921 816.313 269.816C815.94 271.712 815.164 274.612 814.561 276.278C813.987 277.944 813.068 280.184 812.522 281.304C811.948 282.424 810.885 284.204 810.138 285.325C809.392 286.445 807.956 288.225 806.95 289.316C805.945 290.408 804.136 292.016 802.958 292.906C801.781 293.797 799.627 295.118 798.22 295.864C796.784 296.582 794.659 297.53 793.481 297.932C792.304 298.363 790.351 298.966 789.173 299.253C787.99 299.54 785.664 300.029 783.998 300.316C781.385 300.747 778.685 300.833 747.806 300.976V265.939H755.336C760.965 265.939 763.406 265.824 764.9 265.508C765.991 265.25 767.542 264.762 768.346 264.417C769.122 264.044 770.357 263.24 771.074 262.579C771.792 261.947 772.712 260.712 773.142 259.879C773.573 259.018 774.234 257.295 775.239 253.733L775.382 77.5416ZM677.582 76.8811C679.478 76.9385 682.493 77.1109 684.331 77.2832C686.141 77.4555 689.185 77.8288 691.08 78.1447C692.976 78.4607 696.192 79.1499 698.26 79.6956C700.299 80.2125 703.142 81.0741 704.578 81.5623C705.986 82.0793 708.513 83.0557 710.179 83.7737C711.821 84.4917 714.406 85.6979 715.928 86.502C717.421 87.3062 719.69 88.6272 720.954 89.4026C722.218 90.1781 724.716 91.9586 726.525 93.3084C728.363 94.6582 731.264 97.1568 732.987 98.8225C734.739 100.488 737.266 103.188 738.616 104.825C739.937 106.433 741.919 109.018 742.953 110.54C743.987 112.062 745.624 114.647 746.6 116.312C747.548 117.978 748.984 120.793 749.794 122.573C750.598 124.325 751.775 127.312 752.407 129.15C753.068 131.017 754.015 134.348 754.561 136.559C755.107 138.771 755.825 142.332 756.141 144.457C756.428 146.582 756.83 150.46 757.002 153.073C757.203 155.801 757.261 159.765 757.146 162.407C757.031 164.934 756.772 168.61 756.543 170.592C756.313 172.573 755.738 176.048 755.279 178.346C754.819 180.643 753.9 184.118 753.269 186.1C752.666 188.082 751.603 190.982 750.942 192.562C750.282 194.141 749.185 196.554 748.496 197.961C747.778 199.339 746.37 201.838 745.336 203.532C744.274 205.256 742.321 208.128 740.942 209.937C739.593 211.746 736.807 214.963 734.739 217.088C732.671 219.184 729.713 221.97 728.134 223.234C726.554 224.497 723.711 226.565 721.816 227.8C719.92 229.064 716.617 230.959 714.492 232.051C712.338 233.113 709.575 234.434 708.312 234.922C707.048 235.439 704.722 236.301 703.142 236.847C701.563 237.392 698.461 238.283 696.25 238.828C694.038 239.374 690.477 240.063 688.352 240.379C686.198 240.695 682.062 241.097 679.162 241.269C675.313 241.47 672.442 241.47 668.817 241.269C666.031 241.097 661.982 240.666 659.771 240.35C657.559 240.034 653.797 239.259 651.442 238.656C649.058 238.053 645.641 237.019 643.832 236.358C641.994 235.698 638.461 234.147 635.934 232.912C633.401 231.677 629.581 229.495 627.456 228.087C625.302 226.651 622.286 224.411 620.707 223.061C619.127 221.74 616.485 219.242 614.848 217.519C613.211 215.796 610.741 212.895 609.363 211.086C608.013 209.276 606.031 206.347 604.998 204.624C603.964 202.901 602.556 200.373 601.896 199.024C601.207 197.674 600.115 195.233 599.426 193.567C598.766 191.901 597.76 189.115 597.215 187.392C596.64 185.669 595.836 182.682 595.434 180.787C594.998 178.891 594.394 175.646 594.107 173.607C593.82 171.568 593.418 167.433 593.246 164.417C593.045 160.569 593.016 157.467 593.246 153.935C593.418 151.177 593.734 147.415 593.992 145.606C594.251 143.797 594.768 140.752 595.17 138.857C595.578 136.962 596.353 133.946 596.899 132.194C597.416 130.414 598.392 127.628 599.053 126.02C599.685 124.383 601.034 121.453 602.04 119.472C603.045 117.49 604.596 114.704 605.486 113.297C606.405 111.89 608.185 109.305 609.506 107.553C610.799 105.801 613.211 102.987 614.848 101.264C616.485 99.5405 619.127 97.0419 620.707 95.7208C622.286 94.3998 624.871 92.4469 626.451 91.3555C628.03 90.2642 630.615 88.6559 632.195 87.7369C633.774 86.8179 636.164 85.5543 637.513 84.9512C638.834 84.3194 641.161 83.3142 642.683 82.7111C644.176 82.108 646.962 81.1603 648.857 80.5859C650.753 80.0115 653.768 79.2361 655.606 78.834C657.416 78.4607 660.46 77.9437 662.355 77.6565C664.251 77.398 667.668 77.0821 669.966 76.996C672.235 76.8811 675.687 76.8237 677.582 76.8811ZM663.935 113.268C662.413 113.642 660.029 114.446 658.622 115.078C657.186 115.681 655.003 116.829 653.74 117.605C652.476 118.38 650.523 119.759 649.432 120.649C648.312 121.539 646.646 123.09 645.698 124.095C644.779 125.101 643.43 126.709 642.74 127.657C642.051 128.604 640.931 130.27 640.299 131.39C639.639 132.51 638.605 134.635 638.002 136.129C637.37 137.622 636.422 140.551 635.905 142.59C635.388 144.63 634.756 148.191 634.469 150.488C634.096 153.791 634.038 156.031 634.153 161.258C634.268 165.767 634.498 168.868 634.871 171.022C635.187 172.746 635.762 175.416 636.164 176.91C636.566 178.403 637.427 180.931 638.059 182.51C638.72 184.09 639.782 186.272 640.443 187.392C641.103 188.512 642.137 190.121 642.769 190.982C643.401 191.844 645.21 193.854 646.818 195.434C648.398 197.013 650.81 199.052 652.16 199.943C653.51 200.833 655.721 202.097 657.1 202.728C658.478 203.389 660.747 204.222 662.126 204.624C663.504 205.026 665.945 205.572 667.525 205.83C669.708 206.175 671.574 206.232 675.428 206.117C679.42 206.002 681.086 205.801 683.613 205.227C685.336 204.796 688.065 203.935 689.644 203.303C691.224 202.671 693.55 201.551 694.814 200.833C696.077 200.086 697.801 198.995 698.691 198.363C699.552 197.731 701.505 195.979 702.999 194.457C704.55 192.906 706.56 190.465 707.651 188.828C708.714 187.249 710.15 184.721 710.868 183.228C711.563 181.735 712.568 179.265 713.056 177.771C713.544 176.278 714.176 173.808 714.492 172.315C714.779 170.821 715.181 168.093 715.382 166.284C715.583 164.245 715.641 160.626 715.555 156.806C715.44 152.412 715.239 149.684 714.808 147.329C714.492 145.52 713.889 142.849 713.458 141.442C713.056 140.034 712.338 137.881 711.879 136.703C711.419 135.526 710.38 133.372 709.575 131.964C708.743 130.557 707.278 128.346 706.301 127.082C705.325 125.818 703.631 123.952 702.539 122.947C701.448 121.913 699.581 120.362 698.404 119.472C697.197 118.61 695.072 117.289 693.665 116.542C692.229 115.796 690.161 114.848 689.07 114.446C687.95 114.015 685.681 113.354 684.044 112.952C681.517 112.349 680.138 112.234 675.572 112.148C672.556 112.091 669.334 112.148 668.386 112.292C667.439 112.435 665.428 112.866 663.935 113.268Z" fill="#1C1B1F"/>
</g>
<defs>
<clipPath id="clip0_299_2880">
<rect width="1000" height="300.976" fill="white"/>
</clipPath>
</defs>
</svg>
