<svg width="1800" height="600" viewBox="0 0 1800 600" fill="none" xmlns="http://www.w3.org/2000/svg">
<path d="M240.389 381.473H432.259C444.215 381.473 450.203 367.017 441.749 358.562L238.76 155.574C236.244 153.057 232.83 151.643 229.271 151.643L37.4004 151.643C25.4438 151.643 19.4559 166.099 27.9105 174.554L230.899 377.542C233.416 380.059 236.829 381.473 240.389 381.473Z" fill="url(#paint0_linear_205_1348)"/>
<path d="M433.045 204.699L644.777 155.549C656.424 152.845 665.526 165.573 659.202 175.72L488.303 449.946C486.42 452.967 483.415 455.116 479.947 455.921L268.215 505.071C256.568 507.774 247.467 495.047 253.79 484.899L424.689 210.673C426.572 207.653 429.577 205.503 433.045 204.699Z" fill="url(#paint1_linear_205_1348)"/>
<path fill-rule="evenodd" clip-rule="evenodd" d="M1409.15 38C1413.55 38 1416.35 38.25 1419.45 39C1421.8 39.6 1425.15 40.6 1426.95 41.25C1428.75 41.95 1431.95 43.6 1434.05 45C1436.2 46.35 1439.5 49.05 1441.45 51C1443.35 52.95 1446.1 56.25 1447.45 58.4C1448.85 60.5 1450.65 63.95 1451.4 66C1452.2 68.05 1453.15 71.1 1453.5 72.75C1453.85 74.45 1454.15 78.65 1454.1 82.5C1454.1 87.75 1453.85 90.15 1453 93.25C1452.4 95.45 1451.2 98.85 1450.3 100.75C1449.4 102.65 1447.9 105.4 1446.95 106.75C1446 108.1 1444 110.55 1442.5 112.2C1440.95 113.8 1438.45 116.1 1436.95 117.25C1435.45 118.45 1432.4 120.3 1430.2 121.45C1428 122.55 1424.4 123.95 1422.2 124.55C1419.4 125.3 1416.1 125.7 1411.2 125.85C1405.75 126.05 1403.25 125.95 1399.95 125.25C1397.6 124.8 1394.24 123.85 1392.44 123.2C1390.64 122.5 1387.59 121 1385.69 119.85C1383.74 118.75 1380.54 116.2 1378.49 114.25C1376.49 112.35 1373.84 109.4 1372.69 107.75C1371.49 106.1 1369.74 103.05 1368.74 101C1367.74 98.95 1366.49 95.45 1365.94 93.25C1365.39 91.05 1364.79 87.25 1364.64 84.75C1364.44 81.75 1364.59 78.55 1365.14 75.1C1365.59 72.3 1366.59 68.25 1367.44 66.1C1368.24 64 1370.04 60.5 1371.44 58.35C1372.79 56.25 1375.49 52.95 1377.44 51C1379.34 49.05 1382.44 46.5 1384.29 45.3C1386.19 44.1 1389.49 42.35 1391.69 41.5C1393.89 40.6 1397.25 39.55 1399.2 39.15C1401.1 38.75 1402.8 38.35 1402.9 38.2C1403 38.1 1405.85 38 1409.15 38ZM1605.98 171.85C1609.43 172 1615.03 172.4 1618.48 172.8C1621.93 173.2 1627.18 174.1 1630.23 174.8C1633.23 175.45 1637.98 176.8 1640.73 177.7C1643.48 178.6 1648.18 180.55 1651.23 181.95C1654.23 183.4 1658.88 185.85 1661.48 187.4C1664.09 188.95 1668.49 191.9 1671.24 194C1673.99 196.05 1677.94 199.2 1679.94 201C1681.94 202.8 1685.64 206.6 1688.14 209.5C1690.64 212.4 1692.84 214.8 1693.09 214.85C1693.29 214.95 1693.49 206.2 1693.49 176L1763.75 176.25L1764 454H1693.49V434.35C1693.49 423.6 1693.39 414.6 1693.24 414.35C1693.09 414.15 1691.69 415.65 1690.09 417.6C1688.49 419.6 1685.84 422.7 1684.19 424.45C1682.59 426.2 1679.09 429.45 1676.49 431.65C1673.89 433.85 1669.04 437.45 1665.74 439.6C1662.43 441.8 1656.68 445.1 1652.98 446.95C1649.28 448.8 1643.28 451.25 1639.73 452.45C1636.13 453.6 1630.53 455.1 1627.23 455.75C1623.93 456.4 1618.98 457.2 1616.23 457.55C1613.48 457.85 1606.83 458.15 1601.48 458.15C1596.12 458.15 1589.47 457.9 1586.72 457.55C1583.97 457.2 1578.92 456.4 1575.47 455.7C1572.02 455 1566.17 453.4 1562.47 452.2C1558.77 450.95 1552.77 448.5 1549.22 446.8C1545.62 445.1 1540.57 442.35 1537.97 440.7C1535.37 439.1 1530.97 436.1 1528.21 434.05C1525.46 432 1519.91 427.05 1515.91 423.05C1511.91 419.05 1506.86 413.35 1504.66 410.4C1502.51 407.5 1499.31 402.85 1497.66 400.15C1495.96 397.45 1493.06 392.2 1491.21 388.5C1489.36 384.8 1486.86 379.25 1485.66 376.25C1484.51 373.25 1482.71 368.05 1481.71 364.75C1480.71 361.45 1479.26 355.5 1478.46 351.5C1477.66 347.5 1476.61 341.45 1476.11 338C1475.41 333.05 1475.26 328.15 1475.21 314.5C1475.21 300.5 1475.36 296 1476.11 290.5C1476.61 286.8 1477.61 281.05 1478.26 277.75C1478.91 274.45 1480.26 268.95 1481.26 265.5C1482.26 262.05 1484.31 256.1 1485.81 252.25C1487.31 248.4 1489.61 243.2 1490.86 240.75C1492.06 238.3 1494.46 234 1496.11 231.25C1497.76 228.5 1500.46 224.35 1502.16 222C1503.81 219.65 1507.11 215.5 1509.51 212.75C1511.86 210 1515.41 206.25 1517.36 204.35C1519.36 202.5 1522.71 199.6 1524.81 197.9C1526.96 196.2 1530.97 193.35 1533.72 191.55C1536.47 189.7 1541.42 186.85 1544.72 185.15C1548.02 183.45 1552.52 181.35 1554.72 180.5C1556.92 179.6 1560.42 178.35 1562.47 177.65C1564.52 177 1568.47 175.9 1571.22 175.25C1573.97 174.6 1578.67 173.7 1581.72 173.2C1584.72 172.75 1590.02 172.2 1593.47 172C1596.93 171.8 1602.53 171.75 1605.98 171.85ZM1599.23 236.25C1596.73 236.95 1592.57 238.5 1589.97 239.65C1587.37 240.8 1582.87 243.3 1579.97 245.2C1576.52 247.45 1572.87 250.5 1569.42 253.95C1565.97 257.45 1562.92 261.15 1560.52 264.75C1558.47 267.75 1556.17 271.6 1555.32 273.25C1554.52 274.9 1553.07 278.2 1552.17 280.6C1551.22 283.05 1549.92 287.3 1549.22 290.1C1548.52 292.95 1547.62 298.05 1547.22 301.5C1546.82 304.95 1546.47 310.45 1546.47 313.75C1546.47 317.05 1546.72 322.1 1546.97 325C1547.27 327.9 1547.97 332.4 1548.52 335C1549.02 337.6 1550.17 341.9 1551.02 344.5C1551.92 347.1 1553.62 351.4 1554.82 354C1556.02 356.6 1558.67 361.25 1560.67 364.25C1562.67 367.25 1566.32 371.85 1568.77 374.45C1571.22 377 1575.02 380.5 1577.22 382.1C1579.42 383.75 1582.67 386 1584.47 387.05C1586.27 388.1 1589.87 389.9 1592.47 391.05C1595.07 392.2 1599.83 393.8 1602.98 394.65C1608.48 396.1 1609.18 396.15 1619.23 396.2C1627.58 396.25 1630.58 396.05 1633.98 395.35C1636.33 394.85 1640.23 393.75 1642.73 392.95C1645.18 392.1 1649.38 390.4 1651.98 389.1C1654.58 387.8 1658.28 385.65 1660.23 384.4C1662.13 383.1 1665.29 380.7 1667.24 379C1669.14 377.35 1672.04 374.5 1673.69 372.6C1675.29 370.75 1677.94 367.25 1679.59 364.75C1681.24 362.25 1683.44 358.55 1684.49 356.5C1685.54 354.45 1687.19 350.4 1688.19 347.5C1689.24 344.6 1690.59 339.55 1691.24 336.25C1691.94 332.95 1692.69 326.75 1692.99 322.5C1693.39 316.9 1693.39 312.7 1692.99 307.25C1692.69 303.1 1691.89 297.05 1691.24 293.75C1690.59 290.45 1689.24 285.4 1688.19 282.5C1687.19 279.6 1685.54 275.55 1684.49 273.5C1683.44 271.45 1681.19 267.6 1679.44 265C1677.49 262 1674.19 258.1 1670.54 254.45C1667.34 251.25 1663.03 247.5 1660.98 246.15C1658.93 244.75 1654.98 242.5 1652.23 241.15C1649.48 239.75 1645.43 238 1643.23 237.25C1641.03 236.5 1637.18 235.45 1634.73 234.9C1631.53 234.2 1627.68 233.85 1621.23 233.75C1614.98 233.6 1610.93 233.75 1607.98 234.25C1605.63 234.6 1601.68 235.55 1599.23 236.25ZM840.362 173L841.112 175.1C841.513 176.3 857.815 221.85 877.268 276.4C896.721 330.95 912.823 375.6 913.023 375.65C913.273 375.7 923.675 347.4 936.127 312.75C948.578 278.1 964.981 232.55 986.284 173.25L1023.09 173.1C1052.34 173.05 1059.85 173.15 1059.7 173.6C1059.6 173.95 1050.94 195.75 1040.49 222C1030.04 248.25 1010.09 298.45 996.136 333.5C982.183 368.55 962.481 418.2 952.329 443.75C939.527 475.95 932.476 493 929.376 499.25C926.975 504.2 922.925 511.3 920.474 515C918.074 518.7 914.673 523.45 913.023 525.5C911.373 527.55 908.472 530.95 906.522 533C904.622 535.05 901.121 538.35 898.821 540.3C896.521 542.3 892.72 545.15 890.37 546.7C888.019 548.25 884.069 550.55 881.618 551.75C879.118 552.95 875.518 554.5 873.617 555.25C871.667 555.95 867.616 557.2 864.616 558C861.566 558.85 855.265 560.05 850.614 560.75C842.463 561.95 841.112 562 795.356 562V501H815.459C831.311 501 836.562 500.85 840.112 500.25C842.563 499.8 845.713 499.1 847.113 498.65C848.464 498.2 850.864 497.25 852.364 496.5C853.864 495.7 856.215 494.2 857.615 493.15C858.965 492.05 861.215 489.7 862.566 487.95C863.866 486.2 865.766 483.3 866.766 481.5C867.766 479.7 870.467 472.95 872.767 466.5C875.068 460.05 876.868 454.3 876.718 453.75C876.618 453.2 864.866 423.85 850.614 388.5C836.412 353.15 811.158 290.4 794.506 249C777.853 207.6 764.151 173.6 764.001 173.35C763.851 173.15 781.004 173 840.362 173ZM1372.94 173H1446.45V331.9C1446.45 440.65 1446.3 492.5 1445.9 496.25C1445.65 499.25 1444.85 504.45 1444.2 507.75C1443.55 511.05 1442.2 516.1 1441.15 519C1440.15 521.9 1438.55 525.8 1437.6 527.75C1436.6 529.7 1434.75 532.8 1433.45 534.75C1432.15 536.7 1429.65 539.8 1427.9 541.7C1426.15 543.6 1423 546.4 1420.95 547.95C1418.9 549.5 1415.15 551.8 1412.7 553.1C1410.2 554.35 1406.5 556 1404.45 556.7C1402.4 557.45 1399 558.5 1396.95 559C1394.89 559.5 1390.84 560.35 1387.94 560.85C1383.39 561.6 1378.69 561.75 1324.93 562V501H1338.04C1347.84 501 1352.09 500.8 1354.69 500.25C1356.59 499.8 1359.29 498.95 1360.69 498.35C1362.04 497.7 1364.19 496.3 1365.44 495.15C1366.69 494.05 1368.29 491.9 1369.04 490.45C1369.79 488.95 1370.94 485.95 1372.69 479.75L1372.94 173ZM1202.67 171.85C1205.97 171.95 1211.22 172.25 1214.42 172.55C1217.57 172.85 1222.87 173.5 1226.17 174.05C1229.47 174.6 1235.07 175.8 1238.67 176.75C1242.22 177.65 1247.17 179.15 1249.67 180C1252.12 180.9 1256.52 182.6 1259.42 183.85C1262.28 185.1 1266.78 187.2 1269.43 188.6C1272.03 190 1275.98 192.3 1278.18 193.65C1280.38 195 1284.73 198.1 1287.88 200.45C1291.08 202.8 1296.13 207.15 1299.13 210.05C1302.18 212.95 1306.58 217.65 1308.93 220.5C1311.23 223.3 1314.68 227.8 1316.48 230.45C1318.28 233.1 1321.13 237.6 1322.83 240.5C1324.48 243.4 1326.98 248.3 1328.39 251.4C1329.79 254.45 1331.84 259.65 1332.94 262.85C1334.09 266.1 1335.74 271.9 1336.69 275.75C1337.64 279.6 1338.89 285.8 1339.44 289.5C1339.94 293.2 1340.64 299.95 1340.94 304.5C1341.29 309.25 1341.39 316.15 1341.19 320.75C1340.99 325.15 1340.54 331.55 1340.14 335C1339.74 338.45 1338.74 344.5 1337.94 348.5C1337.14 352.5 1335.54 358.55 1334.44 362C1333.39 365.45 1331.54 370.5 1330.39 373.25C1329.24 376 1327.33 380.2 1326.13 382.65C1324.88 385.05 1322.43 389.4 1320.63 392.35C1318.78 395.35 1315.38 400.35 1312.98 403.5C1310.63 406.65 1305.78 412.25 1302.18 415.95C1298.58 419.6 1293.43 424.45 1290.68 426.65C1287.93 428.85 1282.98 432.45 1279.68 434.6C1276.38 436.8 1270.63 440.1 1266.93 442C1263.18 443.85 1258.37 446.15 1256.17 447C1253.97 447.9 1249.92 449.4 1247.17 450.35C1244.42 451.3 1239.02 452.85 1235.17 453.8C1231.32 454.75 1225.12 455.95 1221.42 456.5C1217.67 457.05 1210.47 457.75 1205.42 458.05C1198.72 458.4 1193.72 458.4 1187.41 458.05C1182.56 457.75 1175.51 457 1171.66 456.45C1167.81 455.9 1161.26 454.55 1157.16 453.5C1153.01 452.45 1147.06 450.65 1143.91 449.5C1140.71 448.35 1134.56 445.65 1130.16 443.5C1125.75 441.35 1119.1 437.55 1115.4 435.1C1111.65 432.6 1106.4 428.7 1103.65 426.35C1100.9 424.05 1096.3 419.7 1093.45 416.7C1090.6 413.7 1086.3 408.65 1083.9 405.5C1081.55 402.35 1078.1 397.25 1076.3 394.25C1074.5 391.25 1072.05 386.85 1070.9 384.5C1069.7 382.15 1067.8 377.9 1066.6 375C1065.45 372.1 1063.7 367.25 1062.75 364.25C1061.75 361.25 1060.35 356.05 1059.65 352.75C1058.89 349.45 1057.84 343.8 1057.34 340.25C1056.84 336.7 1056.14 329.5 1055.84 324.25C1055.49 317.55 1055.44 312.15 1055.84 306C1056.14 301.2 1056.69 294.65 1057.14 291.5C1057.59 288.35 1058.49 283.05 1059.19 279.75C1059.9 276.45 1061.25 271.2 1062.2 268.15C1063.1 265.05 1064.8 260.2 1065.95 257.4C1067.05 254.55 1069.4 249.45 1071.15 246C1072.9 242.55 1075.6 237.7 1077.15 235.25C1078.75 232.8 1081.85 228.3 1084.15 225.25C1086.4 222.2 1090.6 217.3 1093.45 214.3C1096.3 211.3 1100.9 206.95 1103.65 204.65C1106.4 202.35 1110.9 198.95 1113.65 197.05C1116.4 195.15 1120.9 192.35 1123.65 190.75C1126.4 189.15 1130.56 186.95 1132.91 185.9C1135.21 184.8 1139.26 183.05 1141.91 182C1144.51 180.95 1149.36 179.3 1152.66 178.3C1155.96 177.3 1161.21 175.95 1164.41 175.25C1167.56 174.6 1172.86 173.7 1176.16 173.2C1179.46 172.75 1185.41 172.2 1189.41 172.05C1193.36 171.85 1199.37 171.75 1202.67 171.85ZM1178.91 235.2C1176.26 235.85 1172.11 237.25 1169.66 238.35C1167.16 239.4 1163.36 241.4 1161.16 242.75C1158.96 244.1 1155.56 246.5 1153.66 248.05C1151.71 249.6 1148.81 252.3 1147.16 254.05C1145.56 255.8 1143.21 258.6 1142.01 260.25C1140.81 261.9 1138.86 264.8 1137.76 266.75C1136.61 268.7 1134.81 272.4 1133.76 275C1132.66 277.6 1131.01 282.7 1130.11 286.25C1129.21 289.8 1128.11 296 1127.61 300C1126.96 305.75 1126.86 309.65 1127.06 318.75C1127.26 326.6 1127.66 332 1128.31 335.75C1128.86 338.75 1129.86 343.4 1130.56 346C1131.26 348.6 1132.76 353 1133.86 355.75C1135.01 358.5 1136.86 362.3 1138.01 364.25C1139.16 366.2 1140.96 369 1142.06 370.5C1143.16 372 1146.31 375.5 1149.11 378.25C1151.86 381 1156.06 384.55 1158.41 386.1C1160.76 387.65 1164.61 389.85 1167.01 390.95C1169.41 392.1 1173.36 393.55 1175.76 394.25C1178.16 394.95 1182.41 395.9 1185.16 396.35C1188.96 396.95 1192.21 397.05 1198.92 396.85C1205.87 396.65 1208.77 396.3 1213.17 395.3C1216.17 394.55 1220.92 393.05 1223.67 391.95C1226.42 390.85 1230.47 388.9 1232.67 387.65C1234.87 386.35 1237.87 384.45 1239.42 383.35C1240.92 382.25 1244.32 379.2 1246.92 376.55C1249.62 373.85 1253.12 369.6 1255.02 366.75C1256.87 364 1259.37 359.6 1260.62 357C1261.83 354.4 1263.58 350.1 1264.43 347.5C1265.28 344.9 1266.38 340.6 1266.93 338C1267.43 335.4 1268.13 330.65 1268.48 327.5C1268.83 323.95 1268.93 317.65 1268.78 311C1268.58 303.35 1268.23 298.6 1267.48 294.5C1266.93 291.35 1265.88 286.7 1265.13 284.25C1264.43 281.8 1263.18 278.05 1262.38 276C1261.58 273.95 1259.77 270.2 1258.37 267.75C1256.92 265.3 1254.37 261.45 1252.67 259.25C1250.97 257.05 1248.02 253.8 1246.12 252.05C1244.22 250.25 1240.97 247.55 1238.92 246C1236.82 244.5 1233.12 242.2 1230.67 240.9C1228.17 239.6 1224.57 237.95 1222.67 237.25C1220.72 236.5 1216.77 235.35 1213.92 234.65C1209.52 233.6 1207.12 233.4 1199.17 233.25C1193.92 233.15 1188.31 233.25 1186.66 233.5C1185.01 233.75 1181.51 234.5 1178.91 235.2Z" fill="black"/>
<defs>
<linearGradient id="paint0_linear_205_1348" x1="131" y1="163.223" x2="242" y2="358.223" gradientUnits="userSpaceOnUse">
<stop offset="0.45" stop-color="#FF6442"/>
<stop offset="1" stop-color="#89301D"/>
</linearGradient>
<linearGradient id="paint1_linear_205_1348" x1="558.5" y1="184.723" x2="363" y2="466.723" gradientUnits="userSpaceOnUse">
<stop offset="0.45" stop-color="#FF6442"/>
<stop offset="1" stop-color="#89301D"/>
</linearGradient>
</defs>
</svg>
